<svg width="151" height="151" viewBox="0 0 151 151" fill="none" xmlns="http://www.w3.org/2000/svg">
<g clip-path="url(#clip0_121_100)">
<rect width="150" height="150" transform="translate(0.5 0.713287)" fill="#F1F1F1"/>
<path d="M122.624 34.1333H108.461V36.4403H122.624V34.1333Z" fill="black"/>
<path d="M61.595 49.1303V23.5163H69.905V27.2063H65.558V34.2083H68.444V37.7063H65.558V45.3203H69.905V49.1303H61.595Z" fill="black"/>
<path d="M94.5291 49.1303L90.1791 36.1703L88.9491 32.0513V49.1273H86.3391V23.5163H88.8381L92.7981 36.6653L93.9531 40.8233V23.5163H96.5721V49.1303H94.5291Z" fill="black"/>
<path d="M63.5571 87.4523V61.8413H67.5171V87.4523H63.5571Z" fill="black"/>
<path d="M42.371 124.643L41.948 123.296C41.408 124.448 40.295 125.027 39.14 125.027C36.446 125.027 34.718 123.062 34.718 119.987V103.682C34.718 100.916 36.836 98.6453 39.68 98.6453C42.527 98.6453 44.486 100.916 44.486 103.682V108.416H40.799V103.529C40.799 102.914 40.451 102.491 39.761 102.491C39.104 102.491 38.681 102.914 38.681 103.529V120.332C38.681 120.989 39.104 121.451 39.761 121.451C40.451 121.451 40.835 120.989 40.835 120.332V115.106H39.836V112.028H44.681V124.643H42.371Z" fill="black"/>
<path d="M67.2621 124.643L64.3821 113.069L63.4971 109.571V124.646H60.1101V99.0353H63.8781L66.4191 110.531L67.1871 114.11V99.0353H70.5381V124.646L67.2621 124.643Z" fill="black"/>
<path d="M92.8761 64.4393V87.4343H90.1491V64.4393H86.7261V61.8233H96.1851V64.4393H92.8761Z" fill="black"/>
<path d="M116.834 77.3243V87.4373H114.065V77.3243L110.108 61.8263H112.877L115.607 73.7483L118.337 61.8263H120.989L116.834 77.3243Z" fill="black"/>
<path d="M98.5341 109.793H84.3711V112.805H98.5341V109.793Z" fill="black"/>
<path d="M92.957 104.219H89.948V118.379H92.957V104.219Z" fill="black"/>
<path d="M37.9099 49.1663H34.9399V23.5193H37.9099C44.8879 23.5553 45.4129 26.3093 45.4129 36.3593C45.4129 46.3703 44.8879 49.1303 37.9099 49.1663ZM38.7139 45.3953C41.3659 45.3953 41.5369 44.7323 41.5069 36.3233C41.5399 27.9473 41.3659 27.2873 38.7139 27.2873V45.3953Z" fill="black"/>
<path d="M41.2401 73.2653C39.6231 70.4183 38.7411 69.3773 38.7411 66.4193C38.7411 65.5313 39.2751 65.1113 39.9321 65.1113C40.5471 65.1113 41.0091 65.5733 41.0091 66.4193V68.3633L44.4321 68.0423V66.8033C44.4321 63.4193 42.6261 61.4573 39.9321 61.4573C36.4701 61.4573 34.8201 64.0373 34.8201 67.2263C34.8201 70.1873 36.8571 73.7273 38.3541 76.1093C39.8541 78.6863 40.7751 80.4923 40.7751 82.7993C40.7751 83.7593 40.3521 84.3383 39.5061 84.3383C38.6211 84.3383 38.1981 83.7233 38.1981 82.7993V80.7293L34.7361 81.0593V82.4933C34.7361 85.9163 36.6201 87.8393 39.6981 87.8393C42.1971 87.8393 44.6181 86.1833 44.6181 82.1843C44.6211 79.1843 42.9321 76.1453 41.2401 73.2653Z" fill="black"/>
</g>
<defs>
<clipPath id="clip0_121_100">
<rect width="150" height="150" fill="white" transform="translate(0.5 0.713287)"/>
</clipPath>
</defs>
</svg>
