<?xml version="1.0" encoding="utf-8"?>
<!-- Generator: Adobe Illustrator 27.8.0, SVG Export Plug-In . SVG Version: 6.00 Build 0)  -->
<svg version="1.1" id="calibration-template" xmlns="http://www.w3.org/2000/svg" xmlns:xlink="http://www.w3.org/1999/xlink"
	 x="0px" y="0px" viewBox="0 0 339 341" style="enable-background:new 0 0 339 341;" xml:space="preserve">
<style type="text/css">
	
		.st0{fill:none;stroke:#29ABE2;stroke-width:3;stroke-linecap:round;stroke-linejoin:round;stroke-miterlimit:10;stroke-dasharray:0.1,6;}
	
		.st1{fill:none;stroke:#EC6EA7;stroke-width:3;stroke-linecap:round;stroke-linejoin:round;stroke-miterlimit:10;stroke-dasharray:0.1,6;}
	
		.st2{fill:none;stroke:#FCEE23;stroke-width:3;stroke-linecap:round;stroke-linejoin:round;stroke-miterlimit:10;stroke-dasharray:0.1,6;}
	
		.st3{fill:none;stroke:#6ABD45;stroke-width:3;stroke-linecap:round;stroke-linejoin:round;stroke-miterlimit:10;stroke-dasharray:0.1,6;}
	
		.st4{fill:none;stroke:#3A53A4;stroke-width:3;stroke-linecap:round;stroke-linejoin:round;stroke-miterlimit:10;stroke-dasharray:0.1,6;}
	
		.st5{fill:none;stroke:#ED2224;stroke-width:3;stroke-linecap:round;stroke-linejoin:round;stroke-miterlimit:10;stroke-dasharray:0.1,6;}
	
		.st6{fill:none;stroke:#010101;stroke-width:3;stroke-linecap:round;stroke-linejoin:round;stroke-miterlimit:10;stroke-dasharray:0.1,6;}
	.st7{fill:none;stroke:#00ADEE;stroke-width:4;}
	.st8{fill:none;stroke:#3A53A4;stroke-width:4;}
	.st9{fill:none;stroke:#EC6EA7;stroke-width:4;}
	.st10{fill:none;stroke:#ED2224;stroke-width:4;}
	.st11{fill:none;stroke:#6ABD45;stroke-width:4;}
	.st12{fill:none;stroke:#F6EB16;stroke-width:4;}
	.st13{fill:none;stroke:#010101;stroke-width:4;}
	.st14{fill:none;stroke:#FFFFFF;stroke-width:4;}
</style>
<path class="st0" d="M127.2,66.7L83.8,91.8l-43.4,25.1V167v50"/>
<path class="st1" d="M296.8,217v-50v-50.1l-43.4-25.1L210,66.7"/>
<path class="st2" d="M81.8,288.8l43.4,25.1l43.4,24.9l43.4-24.9l43.4-25.1"/>
<path class="st3" d="M168.6,238.6l-86.8,50.1l-41.4-71.7l86.8-50.1"/>
<path class="st4" d="M127.2,167V66.7H210V167"/>
<path class="st5" d="M210,167l86.8,50.1l-41.4,71.7l-86.8-50.1"/>
<path class="st6" d="M127.2,167l41.4-23.9L210,167v47.8l-41.4,23.9l-41.4-23.9V167z"/>
<g id="calibration-samples">
	<g>
		<circle class="st7" cx="84.5" cy="145.8" r="10"/>
	</g>
	<g>
		<circle class="st8" cx="169.1" cy="104.8" r="10"/>
	</g>
	<g>
		<ellipse transform="matrix(0.1602 -0.9871 0.9871 0.1602 68.1448 371.5946)" class="st9" cx="252.5" cy="145.8" rx="10" ry="10"/>
	</g>
	<g>
		<circle class="st10" cx="243.5" cy="233.8" r="10"/>
	</g>
	<g>
		<circle class="st11" cx="94.5" cy="233.8" r="10"/>
	</g>
	<g>
		<circle class="st12" cx="169.1" cy="292.8" r="10"/>
	</g>
	<g>
		<circle class="st13" cx="169.1" cy="190.8" r="10"/>
	</g>
	<g>
		<circle class="st14" cx="12" cy="284.8" r="10"/>
		<circle class="st14" cx="326.7" cy="284.8" r="10"/>
		<circle class="st14" cx="169.4" cy="12" r="10"/>
	</g>
</g>
</svg>
