<?xml version="1.0" encoding="utf-8"?>
<!-- Generator: Adobe Illustrator 27.8.0, SVG Export Plug-In . SVG Version: 6.00 Build 0)  -->
<svg version="1.1" id="calibration-template" xmlns="http://www.w3.org/2000/svg" xmlns:xlink="http://www.w3.org/1999/xlink"
	 x="0px" y="0px" viewBox="0 0 360 309" style="enable-background:new 0 0 360 309;" xml:space="preserve">
<style type="text/css">
	.st0{fill:none;stroke:#29ABE2;stroke-width:3;stroke-linecap:round;stroke-dasharray:0.1,5;}
	.st1{fill:none;stroke:#EC6EA7;stroke-width:3;stroke-linecap:round;stroke-dasharray:0.1,5;}
	.st2{fill:none;stroke:#6ABD45;stroke-width:3;stroke-linecap:round;stroke-dasharray:0.1,5;}
	.st3{fill:none;stroke:#ED2224;stroke-width:3;stroke-linecap:round;stroke-dasharray:0.1,5;}
	.st4{fill:none;stroke:#FCEE23;stroke-width:3;stroke-linecap:round;stroke-dasharray:0.1,5;}
	.st5{fill:none;stroke:#3A53A4;stroke-width:3;stroke-linecap:round;stroke-miterlimit:10;stroke-dasharray:0.1,5;}
	
		.st6{fill:none;stroke:#010101;stroke-width:3;stroke-linecap:round;stroke-linejoin:round;stroke-miterlimit:10;stroke-dasharray:0.1,5;}
	.st7{fill:none;stroke:#29ABE2;stroke-width:4;stroke-miterlimit:10;}
	.st8{fill:none;stroke:#3A53A4;stroke-width:4;stroke-miterlimit:10;}
	.st9{fill:none;stroke:#EC6EA7;stroke-width:4;stroke-miterlimit:10;}
	.st10{fill:none;stroke:#6ABD45;stroke-width:4;stroke-miterlimit:10;}
	.st11{fill:none;stroke:#010101;stroke-width:4;stroke-miterlimit:10;}
	.st12{fill:none;stroke:#ED1C24;stroke-width:4;stroke-miterlimit:10;}
	.st13{fill:none;stroke:#F6EB16;stroke-width:4;stroke-miterlimit:10;}
	.st14{fill:none;stroke:#FFFFFF;stroke-width:4;stroke-miterlimit:10;}
</style>
<path class="st0" d="M139.4,58.5h-83v83"/>
<path class="st1" d="M305.4,141.4v-83h-83"/>
<path class="st2" d="M139.4,141.4h-83v83h83"/>
<path class="st3" d="M222.4,224.4h83v-83h-83"/>
<path class="st4" d="M139.4,224.5v83h83v-83"/>
<path class="st5" d="M222.3,141.4v-83h-83v83"/>
<path class="st6" d="M222.3,141.4h-83v83h83V141.4z"/>
<g id="calibration-samples">
	<g>
		<path class="st7" d="M97.3,105.5c5.6,0,10.2-4.6,10.2-10.2c0-5.6-4.6-10.2-10.2-10.2c-5.6,0-10.2,4.6-10.2,10.2
			C87.1,100.9,91.7,105.5,97.3,105.5z"/>
	</g>
	<g>
		<path class="st8" d="M180.4,105.5c5.6,0,10.2-4.6,10.2-10.2c0-5.6-4.6-10.2-10.2-10.2s-10.2,4.6-10.2,10.2
			C170.2,100.9,174.8,105.5,180.4,105.5z"/>
	</g>
	<g>
		<path class="st9" d="M263.4,105.5c5.6,0,10.2-4.6,10.2-10.2c0-5.6-4.6-10.2-10.2-10.2s-10.2,4.6-10.2,10.2
			C253.2,100.9,257.8,105.5,263.4,105.5z"/>
	</g>
	<g>
		<path class="st10" d="M97.3,187.5c5.6,0,10.2-4.6,10.2-10.2s-4.6-10.2-10.2-10.2c-5.6,0-10.2,4.6-10.2,10.2S91.7,187.5,97.3,187.5
			z"/>
	</g>
	<g>
		<path class="st11" d="M180.4,187.5c5.6,0,10.2-4.6,10.2-10.2s-4.6-10.2-10.2-10.2s-10.2,4.6-10.2,10.2S174.8,187.5,180.4,187.5z"
			/>
	</g>
	<g>
		<path class="st12" d="M263.4,187.5c5.6,0,10.2-4.6,10.2-10.2s-4.6-10.2-10.2-10.2s-10.2,4.6-10.2,10.2S257.8,187.5,263.4,187.5z"
			/>
	</g>
	<g>
		<path class="st13" d="M180.4,270.6c5.6,0,10.2-4.6,10.2-10.2c0-5.6-4.6-10.2-10.2-10.2s-10.2,4.6-10.2,10.2
			C170.2,266,174.8,270.6,180.4,270.6z"/>
	</g>
	<g>
		<path class="st14" d="M180.4,22.4c5.6,0,10.2-4.6,10.2-10.2c0-5.6-4.6-10.2-10.2-10.2s-10.2,4.6-10.2,10.2
			C170.2,17.8,174.8,22.4,180.4,22.4z"/>
		<path class="st14" d="M352.7,184.6c4-4,4-10.4,0-14.4c-4-4-10.4-4-14.4,0c-4,4-4,10.4,0,14.4C342.2,188.6,348.7,188.6,352.7,184.6
			z"/>
		<path class="st14" d="M21.6,184.6c4-4,4-10.4,0-14.4c-4-4-10.4-4-14.4,0c-4,4-4,10.4,0,14.4C11.2,188.6,17.7,188.6,21.6,184.6z"/>
	</g>
</g>
</svg>
