<?xml version="1.0" encoding="UTF-8"?>
<!-- Generator: Adobe Illustrator 27.8.0, SVG Export Plug-In . SVG Version: 6.00 Build 0)  -->
<svg id="calibration-template" enable-background="new 0 0 360 309" version="1.1" viewBox="0 0 360 309" xml:space="preserve" xmlns="http://www.w3.org/2000/svg">
<style type="text/css">
	.st0{fill:none;stroke:#29ABE2;stroke-width:3;stroke-linecap:round;stroke-dasharray:0.1,5;}
	.st1{fill:none;stroke:#EC6EA7;stroke-width:3;stroke-linecap:round;stroke-dasharray:0.1,5;}
	.st2{fill:none;stroke:#6ABD45;stroke-width:3;stroke-linecap:round;stroke-dasharray:0.1,5;}
	.st3{fill:none;stroke:#ED2224;stroke-width:3;stroke-linecap:round;stroke-dasharray:0.1,5;}
	.st4{fill:none;stroke:#FCEE23;stroke-width:3;stroke-linecap:round;stroke-dasharray:0.1,5;}
	.st5{fill:none;stroke:#3A53A4;stroke-width:3;stroke-linecap:round;stroke-miterlimit:10;stroke-dasharray:0.1,5;}
	
		.st6{fill:none;stroke:#010101;stroke-width:3;stroke-linecap:round;stroke-linejoin:round;stroke-miterlimit:10;stroke-dasharray:0.1,5;}
	.st7{fill:none;stroke:#29ABE2;stroke-width:4;stroke-miterlimit:10;}
	.st8{fill:none;stroke:#3A53A4;stroke-width:4;stroke-miterlimit:10;}
	.st9{fill:none;stroke:#EC6EA7;stroke-width:4;stroke-miterlimit:10;}
	.st10{fill:none;stroke:#6ABD45;stroke-width:4;stroke-miterlimit:10;}
	.st11{fill:none;stroke:#010101;stroke-width:4;stroke-miterlimit:10;}
	.st12{fill:none;stroke:#ED1C24;stroke-width:4;stroke-miterlimit:10;}
	.st13{fill:none;stroke:#F6EB16;stroke-width:4;stroke-miterlimit:10;}
	.st14{fill:none;stroke:#FFFFFF;stroke-width:4;stroke-miterlimit:10;}
</style>
<path class="st0" d="m139.4 58.5h-83v83"/>
<path class="st1" d="m305.4 141.4v-83h-83"/>
<path class="st2" d="m139.4 141.4h-83v83h83"/>
<path class="st3" d="m222.4 224.4h83v-83h-83"/>
<path class="st4" d="m139.4 224.5v83h83v-83"/>
<path class="st5" d="m222.3 141.4v-83h-83v83"/>
<path class="st6" d="m222.3 141.4h-83v83h83v-83z"/>
<g id="indicators">
	<path class="st7" d="m97.3 105.5c5.6 0 10.2-4.6 10.2-10.2s-4.6-10.2-10.2-10.2-10.2 4.6-10.2 10.2 4.6 10.2 10.2 10.2z"/>
	<path class="st8" d="m180.4 105.5c5.6 0 10.2-4.6 10.2-10.2s-4.6-10.2-10.2-10.2-10.2 4.6-10.2 10.2 4.6 10.2 10.2 10.2z"/>
	<path class="st9" d="m263.4 105.5c5.6 0 10.2-4.6 10.2-10.2s-4.6-10.2-10.2-10.2-10.2 4.6-10.2 10.2 4.6 10.2 10.2 10.2z"/>
	<path class="st10" d="m97.3 187.5c5.6 0 10.2-4.6 10.2-10.2s-4.6-10.2-10.2-10.2-10.2 4.6-10.2 10.2 4.6 10.2 10.2 10.2z"/>
	<path class="st11" d="m180.4 187.5c5.6 0 10.2-4.6 10.2-10.2s-4.6-10.2-10.2-10.2-10.2 4.6-10.2 10.2 4.6 10.2 10.2 10.2z"/>
	<path class="st12" d="m263.4 187.5c5.6 0 10.2-4.6 10.2-10.2s-4.6-10.2-10.2-10.2-10.2 4.6-10.2 10.2 4.6 10.2 10.2 10.2z"/>
	<path class="st13" d="m180.4 270.6c5.6 0 10.2-4.6 10.2-10.2s-4.6-10.2-10.2-10.2-10.2 4.6-10.2 10.2 4.6 10.2 10.2 10.2z"/>
	<path class="st14" d="m180.4 22.4c5.6 0 10.2-4.6 10.2-10.2s-4.6-10.2-10.2-10.2-10.2 4.6-10.2 10.2 4.6 10.2 10.2 10.2z"/><path class="st14" d="m352.7 184.6c4-4 4-10.4 0-14.4s-10.4-4-14.4 0-4 10.4 0 14.4c3.9 4 10.4 4 14.4 0z"/><path class="st14" d="m21.6 184.6c4-4 4-10.4 0-14.4s-10.4-4-14.4 0-4 10.4 0 14.4 10.5 4 14.4 0z"/>
</g><g id="calibration-samples" transform="translate(456.17 12.1)" fill-rule="evenodd" stroke-width="3">
  <circle cx="-268.87" cy="156.1" r="2" fill="#ffffff"/>
  <circle cx="-286.16" cy="163.43" r="2" fill="#ffffff"/>
  <circle cx="-273.22" cy="176.43" r="2" fill="#ffffff"/>
  <circle cx="-273.77" cy=".1" r="2" fill="#000000"/>
  <circle cx="-112.67" cy="167.31" r="2" fill="#000000"/>
  <circle cx="-441.77" cy="167.31" r="2" fill="#000000"/>
  <circle cx="-360.67" cy="72" r="2" fill="#ff0000"/>
  <circle cx="-369.07" cy="93.4" r="2" fill="#ff0000"/>
  <circle cx="-346.67" cy="89.2" r="2" fill="#ff0000"/>
  <circle cx="-202.97" cy="73" r="2" fill="#00ff00"/>
  <circle cx="-202.97" cy="97.4" r="2" fill="#00ff00"/>
  <circle cx="-180.57" cy="83.2" r="2" fill="#00ff00"/>
  <circle cx="-286.97" cy="242.3" r="2" fill="#0000ff"/>
  <circle cx="-275.57" cy="73.4" r="2" fill="#ffff00"/>
  <circle cx="-194.77" cy="155" r="2" fill="#00ffff"/>
  <circle cx="-180.57" cy="165.2" r="2" fill="#00ffff"/>
  <circle cx="-202.97" cy="175.4" r="2" fill="#00ffff"/>
  <circle cx="-369.07" cy="155" r="2" fill="#ff00ff"/>
  <circle cx="-348.67" cy="163.2" r="2" fill="#ff00ff"/>
  <circle cx="-356.87" cy="175.4" r="2" fill="#ff00ff"/>
  <circle cx="-284.57" cy="89.4" r="2" fill="#ffff00"/>
  <circle cx="-267.57" cy="90.4" r="2" fill="#ffff00"/>
  <circle cx="-276.77" cy="258.5" r="2" fill="#0000ff"/>
  <circle cx="-264.73" cy="244.9" r="2" fill="#0000ff"/>
</g>
</svg>
