<?xml version="1.0" encoding="UTF-8"?>
<!-- Generator: Adobe Illustrator 27.8.0, SVG Export Plug-In . SVG Version: 6.00 Build 0)  -->
<svg id="calibration-template" enable-background="new 0 0 346 327" version="1.1" viewBox="0 0 346 327" xml:space="preserve" xmlns="http://www.w3.org/2000/svg">
<style type="text/css">
	.st1{fill:none;stroke:#29ABE2;stroke-width:3;stroke-linecap:round;stroke-miterlimit:10;stroke-dasharray:0.1,6;}
	.st2{fill:none;stroke:#EC6EA7;stroke-width:3;stroke-linecap:round;stroke-miterlimit:10;stroke-dasharray:0.1,6;}
	.st3{fill:none;stroke:#3A53A4;stroke-width:3;stroke-linecap:round;stroke-miterlimit:10;stroke-dasharray:0.1,6;}
	.st4{fill:none;stroke:#FCEE23;stroke-width:3;stroke-linecap:round;stroke-miterlimit:10;stroke-dasharray:0.1,6;}
	.st5{fill:none;stroke:#6ABD45;stroke-width:3;stroke-linecap:round;stroke-miterlimit:10;stroke-dasharray:0.1,6;}
	.st6{fill:none;stroke:#ED2224;stroke-width:3;stroke-linecap:round;stroke-miterlimit:10;stroke-dasharray:0.1,6;}
	.st7{fill:none;stroke:#010101;stroke-width:3;stroke-linecap:round;stroke-miterlimit:10;stroke-dasharray:0.1,6;}
	.st8{fill:none;stroke:#3A53A4;stroke-width:5;stroke-miterlimit:10;}
	.st9{fill:none;stroke:#010101;stroke-width:5;stroke-miterlimit:10;}
	.st10{fill:none;stroke:#FCEE23;stroke-width:5;stroke-miterlimit:10;}
	.st11{fill:none;stroke:#6ABD45;stroke-width:5;stroke-miterlimit:10;}
	.st12{fill:none;stroke:#29ABE2;stroke-width:5;stroke-miterlimit:10;}
	.st13{fill:none;stroke:#ED2224;stroke-width:5;stroke-miterlimit:10;}
	.st14{fill:none;stroke:#EC6EA7;stroke-width:5;stroke-miterlimit:10;}
	.st15{fill:none;stroke:#FFFFFF;stroke-width:5;stroke-miterlimit:10;}
</style>
<g>
	<path class="st1" d="M173.3,23.5C157.1,9.7,136,1.3,113,1.3c-51.3,0-92.9,41.6-92.9,92.8c0,40.3,25.7,74.6,61.6,87.4"/>
	<path class="st2" d="m264.4 181.7c36.2-12.7 62.1-47.1 62.1-87.6 0-51.3-41.6-92.8-92.9-92.8-23 0-44.1 8.4-60.3 22.2"/>
	<path class="st3" d="m142.3 111c-1-5.5-1.6-11.1-1.6-16.9 0-28.3 12.7-53.6 32.6-70.6 20 17 32.6 42.3 32.6 70.6 0 5.8-0.6 11.5-1.6 17"/>
	<path class="st4" d="m81.7 181.5c-1 5.5-1.6 11.2-1.6 17 0 51.3 41.6 92.8 92.9 92.8s92.9-41.6 92.9-92.8c0-5.8-0.6-11.4-1.6-16.9"/>
	<path class="st5" d="m173.3 164.7c-16.2 13.8-37.3 22.2-60.3 22.2-11 0-21.5-1.9-31.3-5.4 6.1-32.9 29.6-59.7 60.5-70.5"/>
	<path class="st6" d="m204.3 111.1c30.8 11 54 37.7 60.1 70.5-9.6 3.4-20 5.2-30.8 5.2-23 0-44.1-8.4-60.3-22.2"/>
	<path class="st7" d="m142.3 111c3.9 21.4 15.2 40.2 31.1 53.7 15.8-13.5 27.1-32.2 31-53.5-9.8-3.5-20.3-5.4-31.3-5.4-10.8-0.1-21.2 1.8-30.8 5.2z"/>
	<path class="st8" d="m173.3 79.8c4.8 0 8.7-3.9 8.7-8.7s-3.9-8.7-8.7-8.7-8.7 3.9-8.7 8.7c0 4.9 3.9 8.7 8.7 8.7z"/>
	<path class="st9" d="m173.3 137.6c4.8 0 8.7-3.9 8.7-8.7s-3.9-8.7-8.7-8.7-8.7 3.9-8.7 8.7 3.9 8.7 8.7 8.7z"/>
	<path class="st10" d="m173.3 230c4.8 0 8.7-3.9 8.7-8.7s-3.9-8.7-8.7-8.7-8.7 3.9-8.7 8.7c0 4.9 3.9 8.7 8.7 8.7z"/>
	<path class="st11" d="m123 166.5c4.8 0 8.7-3.9 8.7-8.7s-3.9-8.7-8.7-8.7-8.7 3.9-8.7 8.7 3.9 8.7 8.7 8.7z"/>
	<path class="st12" d="m93.3 91.3c4.8 0 8.7-3.9 8.7-8.7s-3.9-8.6-8.7-8.6-8.7 3.9-8.7 8.7 3.9 8.6 8.7 8.6z"/>
	<path class="st13" d="m223.2 166.5c4.8 0 8.7-3.9 8.7-8.7s-3.9-8.7-8.7-8.7-8.7 3.9-8.7 8.7 3.9 8.7 8.7 8.7z"/>
	<path class="st14" d="m253.2 91.8c4.8 0 8.7-3.9 8.7-8.7s-3.9-8.7-8.7-8.7-8.7 3.9-8.7 8.7 3.9 8.7 8.7 8.7z"/>
	<path class="st15" d="m334 45.2c4.8 0 8.7-3.9 8.7-8.7s-3.9-8.7-8.7-8.7-8.7 3.9-8.7 8.7 4 8.7 8.7 8.7z"/>
	<path class="st15" d="m13 44.8c4.8 0 8.7-3.9 8.7-8.7s-3.9-8.7-8.7-8.7-8.7 3.9-8.7 8.7 3.9 8.7 8.7 8.7z"/>
	<path class="st15" d="m173.3 322.7c4.8 0 8.7-3.9 8.7-8.7s-3.9-8.7-8.7-8.7-8.7 3.9-8.7 8.7 3.9 8.7 8.7 8.7z"/>
</g>
<g id="calibration-samples" transform="translate(119.87 83.6)" fill-rule="evenodd" stroke-width="3">
  <circle cx="59.209" cy="38.067" r="2" fill="#ffffff"/>
  <circle cx="44.914" cy="45.4" r="2" fill="#ffffff"/>
  <circle cx="57.861" cy="52.4" r="2" fill="#ffffff"/>
  <circle cx="215.13" cy="-47.1" r="2" fill="#000000"/>
  <circle cx="53.432" cy="228.4" r="2" fill="#000000"/>
  <circle cx="-107.17" cy="-46.5" r="2" fill="#000000"/>
  <circle cx="-17.368" cy="-38.2" r="2" fill="#ff0000"/>
  <circle cx="-26.568" cy="-.95" r="2" fill="#ff0000"/>
  <circle cx="-56.821" cy="8.2" r="2" fill="#ff0000"/>
  <circle cx="130.78" cy="-35.9" r="2" fill="#00ff00"/>
  <circle cx="161.86" cy="3.4" r="2" fill="#00ff00"/>
  <circle cx="131.33" cy="-.5" r="2" fill="#00ff00"/>
  <circle cx="52.432" cy="140.7" r="2" fill="#0000ff"/>
  <circle cx="53.132" cy="-27.6" r="2" fill="#ffff00"/>
  <circle cx="104.13" cy="66.4" r="2" fill="#00ffff"/>
  <circle cx="96.132" cy="79.4" r="2" fill="#00ffff"/>
  <circle cx="116.13" cy="82.4" r="2" fill="#00ffff"/>
  <circle cx="3.1322" cy="65.4" r="2" fill="#ff00ff"/>
  <circle cx="11.132" cy="78.4" r="2" fill="#ff00ff"/>
  <circle cx="-9.8678" cy="81.4" r="2" fill="#ff00ff"/>
  <circle cx="44.132" cy="-11.6" r="2" fill="#ffff00"/>
  <circle cx="61.132" cy="-10.6" r="2" fill="#ffff00"/>
  <circle cx="84.132" cy="172.4" r="2" fill="#0000ff"/>
  <circle cx="16.132" cy="164.4" r="2" fill="#0000ff"/>
</g>
<defs>
  <g id="x">
    <path d="m-2-2 4 4m0-4-4 4"/>
  </g>
</defs>
</svg>
